<svg version="1.1" xmlns="http://www.w3.org/2000/svg" xmlns:xlink="http://www.w3.org/1999/xlink" x="0px" y="0px"
	 viewBox="0 233.4 612 629.5" enable-background="new 0 233.4 612 629.5" xml:space="preserve">
<g id="Layer_1">
	<path fill="#D3DEE2" d="M599.8,546c0-161.4-131.4-293.8-293.8-293.8S12.2,383.6,12.2,546S143.6,839.8,306,839.8
		c31,0,62-4.7,90.1-14.1l78.8,36.6c13.1,2.8,27.2-4.7,31-17.8l5.6-89.2C566,702.8,599.8,628.6,599.8,546z M112.6,546
		c0-107,86.4-193.4,193.4-193.4S499.4,439,499.4,546S413,739.4,306,739.4S112.6,653,112.6,546z"/>
	<path fill="#FFFFFF" d="M599.8,527.2c0-161.4-131.4-293.8-293.8-293.8S12.2,364.9,12.2,527.2S143.6,821,306,821
		c31,0,62-4.7,90.1-14.1l78.8,36.6c13.1,2.8,27.2-4.7,31-17.8l5.6-89.2C566,684,599.8,609.8,599.8,527.2z M112.6,527.2
		c0-107,86.4-193.4,193.4-193.4s193.4,86.4,193.4,193.4S413,720.6,306,720.6S112.6,634.3,112.6,527.2z"/>
</g>
<g id="Layer_2">
	<g>
		<g>
			<circle fill="#FD8FB4" cx="306.3" cy="526.6" r="241.1"/>
			<path fill="#FD8FB4" d="M306.3,286.3c133.2,0,241.1,107.9,241.1,241.1S439.6,768.4,306.3,768.4c-133.2,0-241.1-107.9-241.1-241.1
				S173.1,286.3,306.3,286.3"/>
		</g>
		<path fill="#EDC1A4" d="M242.9,640.1h118.4v93.8H242.9V640.1z"/>
		<path fill="#F0D7BC" d="M405.7,455.4c-12.7-21.9-41.6-49.3-100.1-49.3h-3.5c-33.1,0-78.2,10.6-102.2,50.8
			c-14.8,24-14.8,47.9-14.8,49.3c0,1.4,0,38.8,14.8,76.8c19.7,51.5,55,79,102.9,79c47.9,0,84.6-27.5,102.9-79
			c14.1-38.1,14.8-75.4,14.8-78.2C421.2,504.1,419.8,480.1,405.7,455.4z"/>
		<g>
			<circle cx="249.9" cy="550.6" r="14.1"/>
			<circle cx="354.3" cy="550.6" r="14.1"/>
		</g>
		<path fill="#D4AC92" d="M337.3,603.5c-1.4-2.1-2.1-2.1-4.9-2.1h-60.6c-2.1,0-4.9,1.4-4.9,2.1c-1.4,2.1,0,3.5,1.4,5.6l29.6,23.3
			c1.4,1.4,2.1,1.4,3.5,1.4s2.1,0,3.5-1.4l31-23.3C337.3,607,338,605.6,337.3,603.5z"/>
		<path fill="#347AA9" d="M362.7,671.1c-1.4,0-7.8,40.2-60.6,40.2s-58.5-40.2-59.9-40.2c-47.9,0-69.8,25.4-81.1,47.9
			c40.2,29.6,90.2,47.9,144.5,47.9c51.5,0,100.1-16.2,139.6-43.7C436,698.6,412.8,671.1,362.7,671.1z"/>
		<path fill="#90310D" d="M429,484.3c-2.1,27.5,16.2,60.6,11.3,62.7c-19.7,12.7-71.2-55-115.6-83.9c-5.6-3.5-14.1-29.6-18.3-29.6
			c-5.6,0-18.3,24-26.1,28.9c-59.9,38.8-73.3,65.6-75.4,87.4c-1.4,10.6-11.3,23.3-4.9,32.4c40.2,62.7,4.9,74.7-2.1,74.7
			c-14.8,0-29.6-57.1-32.4-79c-5.6-59.9,7-135.3,31-167.1c24-33.1,59.9-49.3,107.9-49.3C378.2,360.3,434.6,421.6,429,484.3z"/>
	</g>
</g>
</svg>
