<svg version="1.1" id="Layer_1" xmlns="http://www.w3.org/2000/svg" xmlns:xlink="http://www.w3.org/1999/xlink" x="0px" y="0px"
	 viewBox="0 155.6 612 636.4" enable-background="new 0 155.6 612 636.4" xml:space="preserve">
<path fill="#D3DEE2" d="M599.8,468.2c0-161.4-131.4-293.8-293.8-293.8S12.2,305.8,12.2,468.2S143.6,762,306,762
	c31,0,62-4.7,90.1-14.1l78.8,36.6c13.1,2.8,27.2-4.7,31-17.8l5.6-89.2C566,625,599.8,550.8,599.8,468.2z M112.6,468.2
	c0-107,86.4-193.4,193.4-193.4s193.4,86.4,193.4,193.4S413,661.6,306,661.6S112.6,575.2,112.6,468.2z"/>
<path fill="#FFFFFF" d="M599.8,449.4c0-161.4-131.4-293.8-293.8-293.8S12.2,287.1,12.2,449.4S143.6,743.2,306,743.2
	c31,0,62-4.7,90.1-14.1l78.8,36.6c13.1,2.8,27.2-4.7,31-17.8l5.6-89.2C566,606.2,599.8,532,599.8,449.4z M112.6,449.4
	C112.6,342.4,199,256,306,256s193.4,86.4,193.4,193.4S413,642.8,306,642.8S112.6,556.5,112.6,449.4z"/>
<g>
	<path fill="#B3E6FF" d="M306,208.2c-133.3,0-242.2,108.9-242.2,242.2c0,82.6,41.3,155.8,105.1,199c9.4-26.3,31-54.4,75.1-54.4
		c0,0,2.8,2.8,2.8,6.6v-32.9c-18.8-14.1-36.6-34.7-46.9-62.9c-2.8-6.6-4.7-12.2-6.6-18.8c-0.9-1.9-17.8-23.5-31-55.4
		c-21.6-55.4,25.3-110.8,25.3-110.8c55.4-59.1,142.7-55.4,171.8-27.2c28.2,27.2,25.3,38.5,25.3,38.5s49.7,6.6,49.7,62
		S414.9,487,414.9,487s0,0,0-6.6c0,8.4-2.8,16.9-6.6,25.3c-10.3,27.2-18.8,48.8-44.1,62.9v28.2c0-0.9,0.9-0.9,0.9-0.9
		c45.1,0,66.6,29.1,76,55.4c62.9-44.1,105.1-116.4,105.1-199C547.2,316.2,439.3,208.2,306,208.2z"/>
	<path fill="#EBB286" d="M304.1,635.3c47.9,0,54.4-32.9,61-40.4v-28.2c-18.8,12.2-36.6,17.8-60.1,17.8c-22.5,0-40.4-5.6-59.1-17.8
		v32.9C245.9,612.8,263.8,635.3,304.1,635.3z"/>
	<g>
		<circle cx="251.6" cy="471" r="14.1"/>
		<circle cx="358.6" cy="471" r="14.1"/>
	</g>
	<path fill="#705A42" d="M414.9,485.1c0,0,19.7-38.5,19.7-92.9c0-55.4-49.7-62-49.7-62s2.8-10.3-25.3-38.5
		c-28.2-27.2-116.4-31-170.8,27.2c0,0-47.9,55.4-25.3,110.8c12.2,31,29.1,53.5,31,55.4c-4.7-16-6.6-31-7.5-41.3
		c0.9,10.3,2.8,25.3,7.5,41.3l0,0l-2.8-55.4c0,0,28.2,27.2,85.4,0c51.6-25.3,81.7-51.6,81.7-51.6s57.3,24.4,57.3,81.7
		c0,10.3,0,16,0,19.7C414.9,485.1,414.9,485.1,414.9,485.1z"/>
	<path fill="#2997CF" d="M366.1,594l-0.9,0.9c-6.6,7.5-13.1,40.4-61,40.4c-40.4,0-58.2-22.5-58.2-34.7c0-3.8-2.8-6.6-2.8-6.6
		c-44.1,0-64.8,28.2-74.2,54.4c38.5,27.2,85.4,42.2,137,42.2c50.7,0,97.6-16,137-42.2C432.7,623.1,411.1,594,366.1,594z"/>
	<rect x="283.5" y="547.1" fill="#DEA281" width="37.5" height="12.2"/>
	<path fill="#FFD6A8" d="M357.6,378.1c0,0-31,27.2-81.7,51.6c-57.3,27.2-84.5,0-84.5,0l2.8,55.4l0,0c1.9,6.6,3.8,12.2,6.6,18.8
		c10.3,29.1,26.3,49.7,46,62.9c19.7,11.3,36.6,17.8,59.1,17.8c23.5,0,41.3-6.6,61-17.8c19.7-14.1,32.9-34.7,43.2-62.9
		c2.8-8.4,6.6-16.9,6.6-25.3c0-3.8,0-10.3,0-19.7C414.9,402.5,357.6,378.1,357.6,378.1z M236.5,471c0-8.4,6.6-14.1,14.1-14.1
		c8.4,0,14.1,6.6,14.1,14.1c0,8.4-6.6,14.1-14.1,14.1C244,485.1,236.5,479.5,236.5,471z M306.9,553.6c-0.9,0.9-1.9,0.9-2.8,0.9
		s-2.8-0.9-2.8-1.9l-4.7-4.7l-25.3-19.7c-1.9-0.9-2.8-4.7-1.9-7.5c0.9-1.9,2.8-5.6,4.7-5.6h62c2.8,0,4.7,4.7,4.7,6.6
		c0.9,1.9,0,4.7-1.9,6.6L313.5,548L306.9,553.6z M358.6,485.1c-8.4,0-14.1-6.6-14.1-14.1c0-8.4,6.6-14.1,14.1-14.1
		c8.4,0,14.1,6.6,14.1,14.1C372.6,479.5,366.1,485.1,358.6,485.1z"/>
	<path fill="#DEA281" d="M340.7,521.7c-0.9-1.9-2.8-6.6-4.7-6.6h-62c-1.9,0-4.7,4.7-4.7,6.6c-0.9,1.9,0,4.7,1.9,6.6l25.3,19.7
		l4.7,4.7c0.9,0.9,1.9,1.9,2.8,1.9s1.9-0.9,2.8-0.9l5.6-5.6l25.3-19.7C340.7,527.4,341.7,524.5,340.7,521.7z"/>
</g>
</svg>
