<svg version="1.1" xmlns="http://www.w3.org/2000/svg" xmlns:xlink="http://www.w3.org/1999/xlink" x="0px" y="0px"
	 viewBox="0 233.4 612 629.5" enable-background="new 0 233.4 612 629.5" xml:space="preserve">
<g id="Layer_1">
	<path fill="#D3DEE2" d="M599.8,546c0-161.4-131.4-293.8-293.8-293.8S12.2,383.6,12.2,546S143.6,839.8,306,839.8
		c31,0,62-4.7,90.1-14.1l78.8,36.6c13.1,2.8,27.2-4.7,31-17.8l5.6-89.2C566,702.8,599.8,628.6,599.8,546z M112.6,546
		c0-107,86.4-193.4,193.4-193.4S499.4,439,499.4,546S413,739.4,306,739.4S112.6,653,112.6,546z"/>
	<path fill="#FFFFFF" d="M599.8,527.2c0-161.4-131.4-293.8-293.8-293.8S12.2,364.9,12.2,527.2S143.6,821,306,821
		c31,0,62-4.7,90.1-14.1l78.8,36.6c13.1,2.8,27.2-4.7,31-17.8l5.6-89.2C566,684,599.8,609.8,599.8,527.2z M112.6,527.2
		c0-107,86.4-193.4,193.4-193.4s193.4,86.4,193.4,193.4S413,720.6,306,720.6S112.6,634.3,112.6,527.2z"/>
</g>
<g id="Layer_4">
	<g>
		<path fill="#D5DEE2" d="M179.1,707.2c-94.2-65.6-117.2-195.6-51.6-289.8s195.6-117.2,289.8-51.6s117.2,195.6,51.1,289.8
			C402.9,749.8,273.3,772.8,179.1,707.2z"/>
		<g>
			<g>
				<circle fill="#FED36E" cx="305.7" cy="526.4" r="242.1"/>
				<rect x="242.6" y="640.7" fill="#745744" width="118.9" height="95.9"/>
				<path fill="#917154" d="M406.3,459.5c-12.8-21.7-41.3-46-100.2-46c-1.3,0-2.1,0-3.4,0c-33.2,0-78.4,6.8-102.7,46
					c-14.9,24.3-14.9,46-14.9,47.3c0,1.3,0,37.9,14.9,77.2c19.6,52,55.4,78.4,103.6,78.4c48.6,0,85.2-27.7,103.6-79.7
					c13.6-37.9,14.9-75,14.9-76.3C421.2,506.8,419.9,483.8,406.3,459.5z"/>
				<g>
					<circle fill="#443124" cx="249.4" cy="549.5" r="13.6"/>
					<circle fill="#443124" cx="354.3" cy="549.5" r="13.6"/>
				</g>
				<path fill="#020202" d="M413.1,564.4c0,0,17.5-21.7,29.8-54.1c21.7-54.1-25.6-108.3-25.6-108.3
					c-54.1-57.5-140.7-54.1-168.4-27.7c-27.7,27.7-25.6,37.1-25.6,37.1s-50.7,6.8-50.7,61s18.3,92.1,18.3,92.1s-1.3,0-1.3-25.6
					c0-55.4,89.9-52.9,139.4-29c55.4,27.7,84,0,84,0V564.4z"/>
				<path fill="#F78460" d="M362.4,671.8c-1.3,0-8.1,40.5-61,40.5c-52.9,0-58.8-40.5-60.1-40.5c-48.6,0-70.3,25.6-81.8,48.6
					C200,750.2,250.7,769,304.8,769c52,0,100.2-16.2,140.7-43.9C436.1,699.5,413.1,671.8,362.4,671.8z"/>
				<path fill="#6C4F39" d="M336.8,601.5c-1.3-2.1-2.1-2.1-4.7-2.1h-61c-2.1,0-4.7,1.3-4.7,2.1c-1.3,2.1,0,3.4,1.3,6l29.8,23
					c1.3,1.3,2.1,1.3,3.4,1.3s2.1,0,3.4-1.3l31.1-23C336.8,605.7,338.1,603.6,336.8,601.5z"/>
			</g>
		</g>
	</g>
</g>
</svg>
